PathFileType	4	(X/Y/Z)	Walk2.trc
DataRate	CameraRate	NumFrames	NumMarkers	Units	OrigDataRate	OrigDataStartFrame	OrigNumFrames
200.000000	200.000000	7	68	mm	200.000000	653	862
Frame#	Times		LFHD		LowerBodyModelVer		RCAR		RWRU		LElbow		LTH2		RACR1		RUA1		RASI		RFA1		LACR1		LTH4		LTB1		LLFC		RTH2		LMT5		LUA1		LTB4		LTB3		LTB2		LToe		LMT1		RTH4		LASI		PELOrigin		LLMAL		RBHD		STRN		RLFC		CLAV		RTH3		LFA1		LWRU		RBack		LPSI		RMT1		RMT5		LCAR		RTH1		RTB2		RCAL		LTH1		C7		RLMAL		RFHD		LBHD		RToe		RPSI		LHJC		MidPelvis		OPelvis		RHJC		SACR		XPelvis		YPelvis		ZPelvis		LWRR		RTB1		RTB3		RTB4		RMMAL		RWRR		RElbow		LTH3		LMMAL		T10		LCAL		LElbowM
			X1	Y1	Z1	X2	Y2	Z2	X3	Y3	Z3	X4	Y4	Z4	X5	Y5	Z5	X6	Y6	Z6	X7	Y7	Z7	X8	Y8	Z8	X9	Y9	Z9	X10	Y10	Z10	X11	Y11	Z11	X12	Y12	Z12	X13	Y13	Z13	X14	Y14	Z14	X15	Y15	Z15	X16	Y16	Z16	X17	Y17	Z17	X18	Y18	Z18	X19	Y19	Z19	X20	Y20	Z20	X21	Y21	Z21	X22	Y22	Z22	X23	Y23	Z23	X24	Y24	Z24	X25	Y25	Z25	X26	Y26	Z26	X27	Y27	Z27	X28	Y28	Z28	X29	Y29	Z29	X30	Y30	Z30	X31	Y31	Z31	X32	Y32	Z32	X33	Y33	Z33	X34	Y34	Z34	X35	Y35	Z35	X36	Y36	Z36	X37	Y37	Z37	X38	Y38	Z38	X39	Y39	Z39	X40	Y40	Z40	X41	Y41	Z41	X42	Y42	Z42	X43	Y43	Z43	X44	Y44	Z44	X45	Y45	Z45	X46	Y46	Z46	X47	Y47	Z47	X48	Y48	Z48	X49	Y49	Z49	X50	Y50	Z50	X51	Y51	Z51	X52	Y52	Z52	X53	Y53	Z53	X54	Y54	Z54	X55	Y55	Z55	X56	Y56	Z56	X57	Y57	Z57	X58	Y58	Z58	X59	Y59	Z59	X60	Y60	Z60	X61	Y61	Z61	X62	Y62	Z62	X63	Y63	Z63	X64	Y64	Z64	X65	Y65	Z65	X66	Y66	Z66	X67	Y67	Z67	X68	Y68	Z68

653	3.265	61.296	1555.8	-12.676	9	2014	4	-102.65	752.11	349.69	-138.55	809.97	364.08	-3.9639	1053.2	-277.55	-32.615	614.29	-147.22	-74.477	1351	203.9	-121.72	1209.1	288.64	37.877	937.56	200.94	-111.84	915.16	338.04	-48.228	1335.6	-152.63	-83.426	625.71	-177.25	-198.86	328.42	-37.492	-166.21	487.96	-135.32	86.977	638.31	203.56	-263	24.643	-111.91	-13.082	1195.7	-227.96	-242.96	255.2	-45.491	-279.74	177.94	-51.939	-241.11	261.18	-107.53	-204.41	28.937	-22.124	-245.47	37.055	-24.677	32.096	622.35	222.98	20.385	944.2	-161.44	29.131	940.88	19.75	-357.01	104.86	-112.82	-108.92	1545.6	93.804	78.041	1199.1	35.099	75.993	453.76	192.21	11.994	1314.2	28.482	51.084	540.17	205.55	111.68	985.62	-260.54	171.94	882.06	-280.21	-209.57	1285.2	122.96	-211.08	954.35	-58.66	274.7	44.165	99.079	262.6	34.498	186.79	224.34	862.87	-256.7	22.533	703.88	245.35	139.63	277.61	178.5	88.405	24.89	137.67	-48.171	698.71	-204.88	-151.52	1389.2	31.173	137.72	64.715	181.75	47.95	1560.7	81.467	-89.853	1538.7	-40.686	315.22	48.802	105.13	-215.28	945.76	73.037	-64.658	830.14	-101.29	-92.023	945.47	13.469	29.131	940.88	19.75	-52.764	825.62	145.13	-213.18	950.06	7.1883	108.98	937.98	15.843	32.091	1020.8	21.073	32.987	939.41	99.644	185.15	900.43	-208.38	152.62	359.25	111.46	154.62	174.07	101.83	153.62	266.66	106.64	155.7	74.359	96.643	-92.973	810	304.29	-169.18	1046.7	321.77	-115.25	549.61	-148.44	-346.74	107.99	-28.272	-194.12	1056.8	18.302	-422.78	85.467	-73.135	-45.734	1003	-191.5
654	3.27	65.448	1556.5	-10.872	9	2014	4	-96.672	751.81	350.77	-132.73	809.56	365.1	-0.81581	1053.9	-276.07	-27.282	614.73	-146.83	-69.713	1351	205.89	-116.51	1208.8	290.28	43.101	937.95	201.95	-106.17	914.82	339.19	-43.603	1336.6	-150.74	-78.073	626.07	-176.96	-194.62	328.61	-37.72	-160.71	488.2	-135.37	92.081	639.17	204.02	-262.95	24.622	-111.87	-9.6809	1196.5	-226.58	-239.44	255.87	-45.847	-277.15	179.06	-52.347	-237.59	261.93	-107.91	-204.45	28.945	-22.276	-245.16	37.106	-24.846	37.139	623.5	223.49	25.517	945.07	-160.34	34.309	941.51	20.805	-355.3	106.88	-113.27	-104.59	1546.2	95.88	82.896	1199.9	37.054	80.751	454.49	192.77	16.643	1315	30.454	55.899	541.13	206.17	115.03	986.52	-258.94	175.31	882.89	-278.43	-204.81	1285.3	124.94	-205.89	954.81	-57.977	275.33	42.406	99.224	263.16	33.191	187.38	227.77	863.82	-254.92	28.138	704.95	245.64	142.86	277.51	178.73	88.681	25.387	137.77	-42.957	699.18	-204.44	-146.91	1389.7	33.369	138.51	64.754	182.02	52.241	1561.5	83.29	-85.722	1539.2	-38.638	316.02	46.355	105.27	-210.09	946.38	73.719	-59.44	830.91	-100.33	-86.84	946.05	14.338	34.309	941.51	20.805	-47.483	826.07	146.03	-207.99	950.6	7.8711	114.16	938.66	16.874	37.23	1021.4	22.233	38.187	939.94	100.7	188.63	901.58	-206.69	156.25	359	111.68	156.38	173.85	101.99	156.32	266.42	106.84	156.45	74.159	96.777	-87.082	809.69	305.36	-163.66	1046.2	323.04	-109.77	549.85	-148.31	-344.8	109.95	-28.748	-189.05	1057.2	19.191	-421.17	88.697	-73.354	-42.199	1003.9	-189.74
655	3.275	69.612	1557.3	-9.062	9	2014	4	-90.665	751.61	351.85	-126.88	809.24	366.1	2.2538	1054.7	-274.58	-21.83	615.25	-146.45	-64.947	1351.1	207.87	-111.3	1208.5	291.92	48.344	938.49	202.96	-100.48	914.57	340.33	-38.949	1337.7	-148.83	-72.6	626.5	-176.69	-190.19	328.83	-38.018	-155.04	488.46	-135.48	97.11	640.07	204.52	-262.89	24.605	-111.81	-6.2916	1197.4	-225.18	-235.73	256.57	-46.263	-274.39	180.22	-52.804	-233.91	262.7	-108.34	-204.52	28.952	-22.434	-244.85	37.158	-25.008	42.124	624.68	224.07	30.7	946.06	-159.21	39.522	942.27	21.876	-353.46	108.98	-113.73	-100.24	1546.9	97.971	87.753	1200.8	39.065	85.371	455.18	193.32	21.298	1315.8	32.431	60.653	542.12	206.84	118.28	987.43	-257.37	178.51	883.68	-276.7	-200.03	1285.5	126.88	-200.66	955.34	-57.353	275.88	40.839	99.331	263.66	32.079	187.94	231.04	864.7	-253.21	33.667	706.05	245.95	145.92	277.4	178.98	88.932	25.828	137.87	-37.656	699.74	-204	-142.28	1390.2	35.555	139.24	64.811	182.27	56.551	1562.3	85.12	-81.581	1539.8	-36.575	316.74	44.143	105.37	-204.91	947.09	74.342	-54.143	831.8	-99.351	-81.63	946.74	15.185	39.522	942.27	21.876	-42.144	826.66	146.92	-202.78	951.22	8.4945	119.38	939.49	17.928	42.387	1022.2	23.406	43.414	940.61	101.76	191.97	902.69	-205.06	159.77	358.75	111.97	158.03	173.66	102.17	158.9	266.2	107.07	157.1	73.989	96.887	-81.16	809.48	306.42	-158.15	1045.9	324.3	-104.13	550.12	-148.23	-342.7	111.99	-29.243	-183.96	1057.8	20.083	-419.38	92.076	-73.558	-38.704	1004.9	-187.94
656	3.28	73.79	1558.2	-7.2474	9	2014	4	-84.627	751.5	352.9	-120.99	809.01	367.09	5.2504	1055.6	-273.06	-16.257	615.85	-146.08	-60.184	1351.3	209.85	-106.08	1208.3	293.55	53.609	939.17	203.96	-94.776	914.42	341.45	-34.272	1338.9	-146.9	-67.006	626.98	-176.45	-185.56	329.04	-38.391	-149.19	488.73	-135.67	102.06	640.97	205.04	-262.81	24.596	-111.75	-2.9064	1198.4	-223.78	-231.83	257.28	-46.74	-271.43	181.41	-53.311	-230.05	263.51	-108.83	-204.59	28.957	-22.595	-244.51	37.212	-25.158	47.045	625.87	224.72	35.936	947.17	-158.04	44.773	943.17	22.96	-351.48	111.16	-114.19	-95.874	1547.7	100.07	92.608	1201.7	41.125	89.835	455.83	193.87	25.957	1316.7	34.41	65.332	543.1	207.54	121.42	988.34	-255.83	181.54	884.45	-275.03	-195.23	1285.7	128.78	-195.4	955.95	-56.783	276.35	39.463	99.395	264.11	31.148	188.46	234.12	865.51	-251.56	39.114	707.17	246.3	148.8	277.26	179.23	89.156	26.213	137.96	-32.271	700.38	-203.56	-137.66	1390.8	37.729	139.89	64.879	182.47	60.879	1563.2	86.955	-77.429	1540.5	-34.502	317.37	42.167	105.45	-199.73	947.87	74.907	-48.762	832.81	-98.349	-76.395	947.54	16.011	44.773	943.17	22.96	-36.744	827.36	147.81	-197.56	951.91	9.0618	124.63	940.46	19.002	47.563	1023.1	24.592	48.673	941.4	102.85	195.18	903.76	-203.5	163.15	358.51	112.31	159.58	173.47	102.34	161.36	265.99	107.33	157.65	73.843	96.969	-75.207	809.37	307.47	-152.64	1045.6	325.54	-98.328	550.43	-148.22	-340.41	114.1	-29.754	-178.86	1058.4	20.977	-417.39	95.604	-73.746	-35.244	1006	-186.09
657	3.285	77.982	1559	-5.431	9	2014	4	-78.557	751.48	353.94	-115.08	808.88	368.08	8.1793	1056.5	-271.52	-10.564	616.52	-145.75	-55.428	1351.5	211.8	-100.86	1208.2	295.17	58.896	939.97	204.96	-89.058	914.37	342.57	-29.582	1340.2	-144.95	-61.292	627.54	-176.24	-180.71	329.27	-38.845	-143.16	489	-135.94	106.93	641.85	205.6	-262.71	24.599	-111.68	0.48142	1199.5	-222.36	-227.72	258.02	-47.281	-268.27	182.65	-53.866	-226.01	264.33	-109.38	-204.68	28.96	-22.756	-244.17	37.266	-25.293	51.898	627.04	225.42	41.228	948.41	-156.85	50.062	944.19	24.054	-349.33	113.43	-114.66	-91.491	1548.6	102.18	97.46	1202.7	43.231	94.127	456.41	194.39	30.615	1317.7	36.385	69.921	544.07	208.25	124.47	989.24	-254.32	184.42	885.18	-273.43	-190.42	1286	130.64	-190.11	956.64	-56.263	276.74	38.276	99.422	264.51	30.383	188.93	237.04	866.24	-250	44.476	708.27	246.69	151.5	277.11	179.5	89.352	26.543	138.03	-26.806	701.12	-203.13	-133.03	1391.4	39.887	140.47	64.953	182.63	65.225	1564.2	88.792	-73.267	1541.2	-32.422	317.93	40.425	105.5	-194.56	948.73	75.419	-43.297	833.93	-97.331	-71.136	948.44	16.816	50.062	944.19	24.054	-31.283	828.19	148.7	-192.33	952.68	9.5782	129.92	941.58	20.093	52.759	1024.1	25.786	53.963	942.33	103.94	198.27	904.78	-202.01	166.39	358.26	112.7	161.01	173.31	102.51	163.7	265.79	107.61	158.12	73.717	97.024	-69.225	809.36	308.51	-147.13	1045.4	326.77	-92.371	550.78	-148.28	-337.92	116.28	-30.277	-173.74	1059	21.873	-415.19	99.281	-73.917	-31.815	1007.1	-184.2
658	3.29	82.185	1560	-3.6154	9	2014	4	-72.456	751.55	354.97	-109.13	808.84	369.06	11.046	1057.6	-269.96	-4.75	617.28	-145.45	-50.682	1351.9	213.74	-95.634	1208.2	296.79	64.204	940.9	205.94	-83.326	914.41	343.68	-24.886	1341.5	-143.01	-55.461	628.16	-176.07	-175.62	329.48	-39.384	-136.92	489.29	-136.28	111.7	642.68	206.17	-262.58	24.62	-111.6	3.878	1200.7	-220.92	-223.39	258.77	-47.886	-264.89	183.91	-54.468	-221.78	265.17	-110	-204.78	28.958	-22.914	-243.8	37.323	-25.408	56.674	628.16	226.17	46.574	949.76	-155.63	55.389	945.33	25.153	-347.01	115.79	-115.13	-87.093	1549.5	104.3	102.31	1203.9	45.375	98.234	456.94	194.9	35.271	1318.8	38.352	74.403	545	208.96	127.42	990.15	-252.85	187.14	885.89	-271.89	-185.6	1286.4	132.45	-184.8	957.39	-55.785	277.06	37.272	99.416	264.87	29.766	189.34	239.79	866.89	-248.51	49.749	709.35	247.11	154.01	276.95	179.78	89.519	26.822	138.1	-21.267	701.94	-202.7	-128.41	1392.1	42.028	140.98	65.028	182.76	69.586	1565.2	90.63	-69.095	1542	-30.34	318.42	38.912	105.53	-189.41	949.65	75.887	-37.751	835.16	-96.303	-65.858	949.43	17.602	55.389	945.33	25.153	-25.763	829.14	149.56	-187.11	953.52	10.051	135.25	942.84	21.198	57.975	1025.3	26.985	59.284	943.37	105.03	201.23	905.76	-200.59	169.47	358.03	113.14	162.34	173.16	102.68	165.9	265.59	107.91	158.5	73.611	97.054	-63.215	809.44	309.54	-141.64	1045.3	327.99	-86.253	551.16	-148.4	-335.22	118.53	-30.809	-168.61	1059.7	22.77	-412.76	103.11	-74.07	-28.412	1008.3	-182.27
659	3.295	86.401	1561	-1.8029	9	2014	4	-66.325	751.7	355.97	-103.15	808.88	370.02	13.854	1058.6	-268.37	1.1838	618.11	-145.19	-45.95	1352.3	215.67	-90.408	1208.3	298.39	69.529	941.94	206.9	-77.583	914.55	344.78	-20.19	1343	-141.06	-49.514	628.84	-175.93	-170.29	329.69	-40.011	-130.49	489.57	-136.7	116.38	643.44	206.75	-262.41	24.665	-111.5	7.2887	1201.9	-219.48	-218.83	259.54	-48.556	-261.28	185.2	-55.114	-217.36	266.03	-110.67	-204.89	28.953	-23.069	-243.43	37.383	-25.499	61.367	629.22	226.96	51.97	951.21	-154.4	60.749	946.58	26.254	-344.51	118.22	-115.59	-82.68	1550.5	106.41	107.14	1205	47.552	102.15	457.41	195.38	39.922	1319.9	40.307	78.76	545.87	209.66	130.29	991.05	-251.41	189.72	886.57	-270.44	-180.77	1286.7	134.22	-179.48	958.21	-55.343	277.33	36.442	99.385	265.17	29.279	189.71	242.39	867.47	-247.1	54.93	710.38	247.56	156.32	276.77	180.06	89.66	27.054	138.16	-15.66	702.84	-202.28	-123.8	1392.9	44.15	141.42	65.101	182.84	73.963	1566.3	92.467	-64.912	1542.9	-28.262	318.85	37.619	105.55	-184.28	950.64	76.318	-32.131	836.49	-95.268	-60.565	950.5	18.371	60.749	946.58	26.254	-20.191	830.19	150.42	-181.88	954.42	10.487	140.62	944.21	22.312	63.209	1026.5	28.184	64.631	944.53	106.13	204.07	906.67	-199.25	172.39	357.8	113.59	163.56	173.02	102.85	167.97	265.41	108.22	158.8	73.523	97.062	-57.179	809.62	310.56	-136.16	1045.3	329.2	-79.973	551.57	-148.61	-332.31	120.83	-31.344	-163.48	1060.5	23.668	-410.08	107.08	-74.205	-25.032	1009.7	-180.3
